<svg aria-hidden="true" style="position: absolute; width: 0; height: 0; overflow: hidden;" version="1.1" xmlns="http://www.w3.org/2000/svg" xmlns:xlink="http://www.w3.org/1999/xlink">
<defs>
<symbol id="icon-artist" viewBox="0 0 20 20">
<path d="M15.75 8l-3.74-3.75c-0.006-0.083-0.010-0.18-0.010-0.277 0-2.204 1.786-3.99 3.99-3.99 1.111 0 2.116 0.454 2.839 1.187l0 0c0.73 0.725 1.182 1.729 1.182 2.839 0 2.209-1.791 4-4 4-0.092 0-0.183-0.003-0.274-0.009l0.012 0.001zM1.85 15.3l9.2-9.19 2.83 2.83-9.2 9.2-2.82-2.84zM0.45 18.13l2.11-2.12 1.42 1.42-2.12 2.12-1.42-1.42zM10 15l2-2v7h-2v-5z"></path>
</symbol>
<symbol id="icon-headphones" viewBox="0 0 20 20">
<path d="M16 8c0-3.314-2.686-6-6-6s-6 2.686-6 6v0 11h-2c-1.105 0-2-0.895-2-2v0-4c0-1.105 0.895-2 2-2v0-3c0-4.418 3.582-8 8-8s8 3.582 8 8v0 3c1.105 0 2 0.895 2 2v0 4c0 1.105-0.895 2-2 2v0h-2v-11zM12 10h3v10h-3v-10zM5 10h3v10h-3v-10z"></path>
</symbol>
<symbol id="icon-music-notes" viewBox="0 0 20 20">
<path d="M20 2.5v-2.5l-14 2v12.17c-0.297-0.108-0.639-0.17-0.996-0.17-0.002 0-0.003 0-0.005 0h-2c-1.657 0-3 1.343-3 3s1.343 3 3 3v0h2c1.657 0 3-1.343 3-3v0-11.29l10-1.41v7.88c-0.297-0.108-0.639-0.17-0.996-0.17-0.002 0-0.003 0-0.005 0h-2c-1.657 0-3 1.343-3 3s1.343 3 3 3h2c1.657 0 3-1.343 3-3v0-12.51z"></path>
</symbol>
<symbol id="icon-music-playlist" viewBox="0 0 20 20">
<path d="M16 17c0 1.657-1.343 3-3 3v0h-2c-1.657 0-3-1.343-3-3s1.343-3 3-3v0h2c0.001 0 0.003 0 0.004 0 0.357 0 0.699 0.062 1.016 0.177l-0.021-0.007v-13.17l6-1v4l-4 0.67v12.33zM0 3h12v2h-12v-2zM0 7h12v2h-12v-2zM0 11h12v2h-12v-2zM0 15h6v2h-6v-2z"></path>
</symbol>
<symbol id="icon-search" viewBox="0 0 20 20">
<path d="M12.9 14.32c-1.34 1.049-3.050 1.682-4.908 1.682-4.418 0-8-3.582-8-8s3.582-8 8-8c4.418 0 8 3.582 8 8 0 1.858-0.633 3.567-1.695 4.925l0.013-0.018 5.35 5.33-1.42 1.42-5.33-5.34zM8 14c3.314 0 6-2.686 6-6s-2.686-6-6-6v0c-3.314 0-6 2.686-6 6s2.686 6 6 6v0z"></path>
</symbol>
</defs>
</svg>
